<?xml version="1.0" encoding="utf-8"?>
<svg viewBox="0 0 60 60" xmlns="http://www.w3.org/2000/svg">
  <rect width="60" height="60" style="fill: rgb(13, 71, 160);"/>
  <rect width="54" height="54" style="stroke: rgb(13, 71, 160); fill: rgb(255, 255, 255);" rx="13.888" ry="13.888" y="3" x="3"/>
  <path id="enpass_logo_animate" class="a" d="M 30.029 26.561 C 33.377 26.561 36.727 26.55 40.077 26.565 C 41.487 26.538 42.836 27.133 43.765 28.193 C 44.471 28.984 44.882 29.994 44.934 31.053 C 44.935 32.026 44.82 32.995 44.588 33.938 C 44.142 36.496 43.681 39.046 43.226 41.599 C 42.834 43.798 42.459 45.999 42.047 48.195 C 41.469 50.732 39.397 52.657 36.826 53.046 C 36.52 53.084 36.209 53.102 35.902 53.102 C 31.987 53.105 28.071 53.105 24.156 53.102 C 21.103 53.096 18.494 50.903 17.961 47.895 C 17.176 43.509 16.386 39.124 15.59 34.74 C 15.433 33.872 15.26 33.008 15.137 32.133 C 14.692 29.582 16.382 27.149 18.93 26.676 C 19.328 26.6 19.733 26.564 20.138 26.565 C 23.434 26.557 26.733 26.556 30.029 26.561 Z M 27.371 44.7 L 27.371 44.7 C 27.371 45.575 27.371 46.449 27.371 47.326 C 27.333 48.18 28.035 48.882 28.89 48.845 C 29.614 48.845 30.339 48.845 31.064 48.845 C 31.981 48.933 32.75 48.164 32.661 47.246 C 32.661 45.532 32.661 43.817 32.653 42.101 C 32.633 41.902 32.741 41.71 32.924 41.623 C 35.042 40.369 36.066 37.859 35.433 35.48 C 34.611 32.523 31.57 30.769 28.599 31.539 C 26.902 31.889 25.49 33.054 24.823 34.652 C 23.834 37.251 24.817 40.186 27.173 41.665 C 27.309 41.73 27.389 41.872 27.377 42.021 C 27.366 42.917 27.371 43.809 27.371 44.702 Z" style="fill: rgb(13, 71, 160);"/>
  <g id="Page-1" stroke="none" stroke-width="1" fill="none" fill-rule="evenodd" transform="matrix(1.069064, 0, 0, 1.069064, 17.171232, 6.564568)" style="">
    <g id="White-Hat" fill="#FFFFFF">
      <ellipse id="Oval-3" cx="12" cy="7.5" rx="9" ry="7.5" style="fill: rgb(92, 31, 135);"/>
      <path d="M12,16.8035607 C18.627417,16.8035607 24,14.7888421 24,12.3035607 C24,9.81827932 18.627417,7.8035607 12,7.8035607 C5.372583,7.8035607 0,9.81827932 0,12.3035607 C0,14.7888421 5.372583,16.8035607 12,16.8035607 Z" id="Oval-4" style="fill: rgb(92, 31, 135);"/>
      <rect id="Rectangle-2" x="3" y="7.5" width="18" height="6" style="fill: rgb(92, 31, 135);"/>
    </g>
  </g>
  <title>logowhite</title>
  <desc>Created with Sketch.</desc>
</svg>